Roxanne - 1987   
http://www.imdb.com/title/tt0093886/

Original DVD full rip
Audio - Eng+Spa+Fre+Ger+ Ita
Subs - Eng+Fre+Spa+Ger+Ita+Dut+Cze+Dan+Fin+Gre+Heb+Hin+Hun+Ice+Nor+Pol+Por+Swe+Tur
PAL
(technical details way bellow)
Genre: Comedy / Romance

A modernisation of Edmond Rostands "Cyrano De Bergerac". C.D. Bales is a fire chief, who just happens to have an enormous nose. He hires a new fire-fighter, Chris, who is handsome, and knows his hoses, but is useless when it comes to women. Roxanne is an astronomer who has just arrived in town. She catches the eye of Chris, and he asks C.D. to help him woo her. Little does Chris know that C.D. is mad about Roxanne, but hasn't found the right way to tell her - yet. (imdb.com)

If you don't like Steve Martin, watch this movie and you will. This movie so perfectly showcases his talents, both physical and verbal. The supporting cast is good too. The first scene with Daryl Hannah is great, as was the 20 better insults scene, but the highlight of the movie, at least for me, was Chris's first date with Roxanne. The whole thing where he's at her house is so hilarious. This movie is very funny, yet it never sacrifices the characters for humor. An underrated classic, sure to brighten your day. (a reviewer at imdb.com)

=================================================================================

On peut violer les lois sans qu'elles crient. (Talleyrand)	

=================================================================================

Technical blab (they asked to put this up on the file description on another tracker - sorry for the wasted space) - this is of one of the movie vobs - I believe there is no need for further info on the other one's which are the same.

General
Complete name                    : RoxanneVIDEO_TSVTS_01_1.VOB
Format                           : MPEG-PS
File size                        : 1 024 MiB
Duration                         : 25mn 54s
Overall bit rate                 : 5 525 Kbps

Video
ID                               : 224 (0xE0)
Format                           : MPEG Video
Format version                   : Version 2
Format profile                   : Main@Main
Format settings, Matrix          : Default
Duration                         : 25mn 54s
Bit rate mode                    : Variable
Bit rate                         : 4 026 Kbps
Nominal bit rate                 : 9 800 Kbps
Width                            : 720 pixels
Height                           : 576 pixels
Display aspect ratio             : 16:9
Frame rate                       : 25.000 fps
Standard                         : PAL
Colorimetry                      : 4:2:0
Scan type                        : Interlaced
Scan order                       : Top Field First
Bits/(Pixel*Frame)               : 0.388
Stream size                      : 746 MiB (73%)

Audio #1
ID                               : 128 (0x80)
Format                           : AC-3
Format/Info                      : Audio Coding 3
Format profile                   : Dolby Digital
Duration                         : 25mn 54s
Bit rate mode                    : Constant
Bit rate                         : 256 Kbps
Channel(s)                       : 2 channels
Channel positions                : L R
Sampling rate                    : 48.0 KHz
Stream size                      : 47.4 MiB (5%)

Audio #2
ID                               : 129 (0x81)
Format                           : AC-3
Format/Info                      : Audio Coding 3
Format profile                   : Dolby Digital
Duration                         : 25mn 54s
Bit rate mode                    : Constant
Bit rate                         : 256 Kbps
Channel(s)                       : 2 channels
Channel positions                : L R
Sampling rate                    : 48.0 KHz
Stream size                      : 47.4 MiB (5%)

Audio #3
ID                               : 130 (0x82)
Format                           : AC-3
Format/Info                      : Audio Coding 3
Format profile                   : Dolby Digital
Duration                         : 25mn 54s
Bit rate mode                    : Constant
Bit rate                         : 256 Kbps
Channel(s)                       : 2 channels
Channel positions                : L R
Sampling rate                    : 48.0 KHz
Stream size                      : 47.4 MiB (5%)

Audio #4
ID                               : 131 (0x83)
Format                           : AC-3
Format/Info                      : Audio Coding 3
Format profile                   : Dolby Digital
Duration                         : 25mn 54s
Bit rate mode                    : Constant
Bit rate                         : 256 Kbps
Channel(s)                       : 2 channels
Channel positions                : L R
Sampling rate                    : 48.0 KHz
Stream size                      : 47.4 MiB (5%)

Audio #5
ID                               : 132 (0x84)
Format                           : AC-3
Format/Info                      : Audio Coding 3
Format profile                   : Dolby Digital
Duration                         : 25mn 54s
Bit rate mode                    : Constant
Bit rate                         : 256 Kbps
Channel(s)                       : 2 channels
Channel positions                : L R
Sampling rate                    : 48.0 KHz
Stream size                      : 47.4 MiB (5%)

Text #1
ID                               : 38 (0x26)
Format                           : RLE
Format/Info                      : Run-length encoding

Text #2
ID                               : 39 (0x27)
Format                           : RLE
Format/Info                      : Run-length encoding
Duration                         : 25mn 54s

Text #3
ID                               : 40 (0x28)
Format                           : RLE
Format/Info                      : Run-length encoding
Duration                         : 25mn 54s

Text #4
ID                               : 41 (0x29)
Format                           : RLE
Format/Info                      : Run-length encoding
Duration                         : 25mn 54s

Text #5
ID                               : 42 (0x2A)
Format                           : RLE
Format/Info                      : Run-length encoding
Duration                         : 25mn 54s

Text #6
ID                               : 43 (0x2B)
Format                           : RLE
Format/Info                      : Run-length encoding
Duration                         : 25mn 54s

Text #7
ID                               : 44 (0x2C)
Format                           : RLE
Format/Info                      : Run-length encoding
Duration                         : 25mn 54s

Text #8
ID                               : 45 (0x2D)
Format                           : RLE
Format/Info                      : Run-length encoding
Duration                         : 25mn 54s

Text #9
ID                               : 46 (0x2E)
Format                           : RLE
Format/Info                      : Run-length encoding
Duration                         : 25mn 54s

Text #10
ID                               : 47 (0x2F)
Format                           : RLE
Format/Info                      : Run-length encoding
Duration                         : 25mn 54s

Text #11
ID                               : 48 (0x30)
Format                           : RLE
Format/Info                      : Run-length encoding
Duration                         : 25mn 54s

Text #12
ID                               : 49 (0x31)
Format                           : RLE
Format/Info                      : Run-length encoding
Duration                         : 25mn 54s

Text #13
ID                               : 50 (0x32)
Format                           : RLE
Format/Info                      : Run-length encoding
Duration                         : 25mn 54s

Menu

